<?xml version="1.0" standalone="no"?>
<!DOCTYPE svg PUBLIC "-//W3C//DTD SVG 20010904//EN"
 "http://www.w3.org/TR/2001/REC-SVG-20010904/DTD/svg10.dtd">
<svg version="1.0" xmlns="http://www.w3.org/2000/svg"
 width="3166.000000pt" height="2398.000000pt" viewBox="0 0 3166.000000 2398.000000"
 preserveAspectRatio="xMidYMid meet">

<g transform="translate(0.000000,2398.000000) scale(0.100000,-0.100000)"
fill="#000000" stroke="none">
<path d="M22623 22821 c-21 -18 -22 -26 -23 -197 -3 -394 -33 -2559 -36 -2563
-2 -2 -1033 423 -2291 944 -1258 522 -2319 961 -2356 976 -37 16 -65 23 -62
16 4 -7 1 -5 -7 3 -16 19 -63 40 -88 40 -10 0 -21 6 -23 13 -3 6 -6 2 -6 -9
-1 -12 6 -27 14 -34 10 -9 12 -17 6 -23 -13 -13 -2 -40 13 -29 24 17 66 31 66
22 0 -6 -7 -10 -15 -10 -16 0 -17 -1 -19 -42 -1 -16 2 -28 7 -28 5 0 6 11 3
25 -7 26 7 34 21 13 5 -9 10 -3 14 17 6 27 7 26 8 -13 1 -32 -2 -41 -11 -36
-9 5 -8 2 1 -9 10 -13 17 -15 27 -6 11 9 14 7 14 -10 0 -18 -3 -19 -25 -11
-19 7 -23 6 -18 -5 3 -8 12 -15 20 -15 9 0 13 -6 9 -15 -3 -8 -1 -15 4 -15 5
0 10 10 12 22 3 23 38 39 38 19 0 -6 -7 -11 -16 -11 -10 0 -14 -6 -11 -14 4
-9 -2 -18 -16 -23 -19 -6 -18 -8 13 -13 25 -4 37 -1 42 10 5 8 6 -5 3 -30 -2
-25 -2 -37 1 -27 7 21 24 23 24 2 0 -8 7 -15 16 -15 8 0 12 -4 9 -10 -3 -5 -1
-10 5 -10 6 0 8 -5 4 -12 -4 -7 -3 -8 4 -4 11 7 52 -26 52 -43 0 -4 -11 -6
-25 -3 -14 2 -25 0 -25 -7 0 -6 11 -13 25 -17 25 -6 35 -24 14 -24 -25 0 6
-21 47 -31 42 -11 61 -29 29 -29 -8 0 -15 -4 -15 -10 0 -5 7 -10 15 -10 21 0
19 -20 -2 -21 -13 0 -11 -3 6 -10 13 -5 32 -7 42 -4 20 7 49 -15 49 -35 0 -6
-8 -19 -17 -28 -16 -16 -15 -17 1 -20 13 -3 15 -7 5 -18 -7 -9 -8 -14 -1 -14
6 0 19 -3 29 -6 15 -5 15 -4 3 5 -13 9 -12 11 3 11 10 0 30 -12 44 -27 14 -16
30 -27 35 -25 5 1 7 -2 3 -8 -4 -6 1 -23 11 -38 19 -28 21 -32 23 -57 0 -8 10
-15 21 -15 11 0 20 -5 20 -11 0 -5 -5 -7 -10 -4 -13 8 -50 -4 -50 -16 0 -6 4
-8 10 -4 5 3 20 3 33 0 19 -5 26 -15 31 -46 3 -22 15 -48 25 -58 11 -11 21
-27 24 -38 3 -10 5 -3 6 17 2 31 3 33 11 13 6 -13 18 -23 30 -23 30 0 24 -18
-7 -22 -26 -3 -46 -28 -23 -28 6 0 8 5 4 12 -4 7 -3 8 5 4 6 -4 9 -11 6 -16
-3 -5 0 -12 6 -16 6 -3 15 0 20 7 7 11 9 10 9 -3 0 -10 6 -19 13 -20 6 0 17
-2 22 -2 6 -1 21 -9 34 -18 17 -12 29 -14 42 -7 14 7 17 6 13 -4 -4 -10 24
-26 98 -56 57 -23 106 -40 109 -39 3 2 12 -2 20 -9 8 -6 1506 -630 3329 -1386
1823 -756 3378 -1401 3455 -1433 77 -32 142 -61 145 -64 3 -3 14 -7 25 -8 11
-2 23 -8 26 -14 3 -5 8 -9 10 -7 9 5 79 -23 79 -32 0 -6 4 -8 8 -5 11 6 156
-53 160 -65 2 -5 8 -6 13 -3 6 3 18 -1 27 -9 9 -9 20 -16 25 -16 4 -1 9 -2 12
-2 3 -1 8 -2 13 -3 29 -7 82 -32 82 -39 0 -4 4 -6 9 -3 5 4 11 2 13 -3 1 -6
19 -13 38 -16 19 -3 46 -14 60 -23 14 -9 27 -17 30 -18 3 -1 20 -5 38 -9 17
-4 32 -12 32 -17 0 -5 4 -7 9 -4 4 3 25 -4 47 -14 21 -11 42 -20 47 -20 5 0
15 -7 24 -15 8 -8 19 -13 24 -9 5 3 16 -2 25 -10 9 -9 20 -14 25 -11 5 4 9 1
9 -5 0 -6 4 -8 10 -5 5 3 30 -6 55 -20 25 -15 45 -24 45 -20 0 4 6 2 13 -4 8
-6 17 -8 20 -4 4 3 7 1 7 -6 0 -7 5 -9 10 -6 6 3 10 2 10 -2 0 -5 10 -9 22
-10 11 -1 24 -6 27 -10 7 -10 90 -48 105 -48 6 0 30 -10 53 -23 39 -20 68 -29
101 -31 7 -1 11 -5 8 -9 -4 -7 64 -37 104 -44 8 -2 17 -6 20 -10 5 -6 432
-187 455 -192 6 -2 33 -13 60 -25 28 -13 55 -24 60 -25 6 -2 36 -15 69 -29 32
-15 60 -27 62 -27 1 0 159 -65 351 -145 379 -158 407 -166 441 -117 11 15 65
137 121 272 83 201 101 253 101 296 0 36 -5 56 -17 67 -15 12 -541 234 -1206
507 l-127 53 1 406 c0 223 4 793 9 1266 33 3284 33 3175 14 3196 -17 19 -65
19 -2543 19 -2434 -1 -2527 -1 -2548 -19z m2565 -729 l1824 -2 -6 -542 c-3
-299 -8 -829 -11 -1178 -11 -1389 -18 -2150 -21 -2150 -2 0 -38 14 -81 31 -43
17 -82 32 -88 33 -5 2 -36 15 -69 29 -32 15 -62 27 -66 27 -5 0 -21 6 -37 14
-53 27 -104 47 -123 49 -11 1 -20 4 -20 8 0 6 -21 16 -50 24 -3 1 -21 9 -40
17 -70 32 -165 70 -184 73 -10 2 -23 9 -30 14 -6 5 -24 12 -39 15 -15 2 -44
13 -64 24 -56 29 -164 73 -193 79 -14 2 -26 8 -28 13 -2 5 -10 6 -18 3 -8 -3
-14 0 -14 5 0 9 -17 18 -55 29 -45 12 -85 29 -85 36 0 5 -4 5 -10 2 -5 -3 -30
6 -55 20 -25 14 -54 25 -65 25 -10 0 -26 7 -35 16 -9 9 -19 14 -22 11 -3 -4
-20 1 -37 10 -17 10 -33 18 -36 18 -9 1 -172 66 -215 85 -22 10 -77 32 -122
51 -46 18 -83 37 -83 41 0 5 -4 7 -9 3 -5 -3 -56 14 -113 39 -57 24 -120 49
-140 57 -21 7 -38 16 -38 19 0 4 -6 7 -12 7 -17 0 -1410 571 -1422 583 -9 9
21 2294 30 2341 5 21 11 26 32 24 15 -1 847 -3 1850 -3z m-7228 -138 c0 -8
-19 -13 -24 -6 -3 5 1 9 9 9 8 0 15 -2 15 -3z m-40 -58 c0 -11 -19 -15 -25 -6
-3 5 1 10 9 10 9 0 16 -2 16 -4z m195 -226 c3 -5 -3 -10 -14 -10 -12 0 -21 5
-21 10 0 6 6 10 14 10 8 0 18 -4 21 -10z m255 -420 c0 -5 -2 -10 -4 -10 -3 0
-8 5 -11 10 -3 6 -1 10 4 10 6 0 11 -4 11 -10z m107 -142 c-3 -8 -6 -5 -6 6
-1 11 2 17 5 13 3 -3 4 -12 1 -19z m-27 -12 c0 -3 -4 -8 -10 -11 -5 -3 -10 -1
-10 4 0 6 5 11 10 11 6 0 10 -2 10 -4z m70 -16 c0 -5 -9 -10 -20 -10 -11 0
-20 5 -20 10 0 6 9 10 20 10 11 0 20 -4 20 -10z m67 -46 c-3 -3 -12 -4 -19 -1
-8 3 -5 6 6 6 11 1 17 -2 13 -5z"/>
<path d="M17260 22240 c0 -5 5 -10 11 -10 5 0 7 5 4 10 -3 6 -8 10 -11 10 -2
0 -4 -4 -4 -10z"/>
<path d="M17370 22170 c-12 -7 -10 -9 7 -7 12 0 19 5 17 9 -6 10 -6 10 -24 -2z"/>
<path d="M17460 22153 c0 -7 -7 -13 -15 -13 -8 0 -15 -7 -15 -16 0 -8 4 -13 9
-10 4 3 6 -7 3 -22 -5 -27 -5 -27 17 -8 20 18 22 18 40 2 11 -10 16 -25 14
-40 -3 -13 0 -27 6 -30 6 -4 11 -16 11 -26 0 -10 17 -36 38 -58 l38 -40 -3 32
c-3 30 -3 30 8 6 6 -14 12 -30 13 -37 1 -7 5 -15 8 -19 4 -3 4 -13 1 -21 -4
-11 -2 -14 8 -11 8 3 13 11 11 17 -1 7 2 10 8 6 5 -3 10 -13 10 -21 0 -8 3
-13 8 -13 21 4 32 -3 32 -19 0 -21 18 -42 37 -42 8 0 13 13 13 36 0 27 -7 43
-27 61 -20 19 -23 27 -13 33 10 6 7 14 -13 33 -15 13 -27 29 -27 36 0 6 -17
11 -40 11 -39 0 -40 1 -41 38 0 20 -2 48 -4 62 l-4 25 16 -22 c15 -23 43 -31
43 -14 0 5 -7 14 -15 21 -8 7 -15 9 -15 6 0 -4 -7 0 -16 8 -13 14 -24 17 -49
16 -3 -1 -12 6 -20 14 -8 8 -24 12 -36 9 -12 -4 -25 0 -30 8 -6 10 -9 10 -9 2z
m64 -35 c-5 -7 0 -9 14 -6 16 4 19 2 15 -10 -5 -11 -3 -13 8 -7 11 7 12 6 2
-7 -7 -8 -10 -18 -6 -21 3 -4 -1 -7 -11 -7 -9 0 -14 5 -11 10 3 6 0 10 -7 10
-11 0 -10 2 0 9 11 7 10 9 -3 15 -14 5 -13 26 1 26 3 0 2 -5 -2 -12z m29 -118
c3 -11 1 -20 -4 -20 -5 0 -9 9 -9 20 0 11 2 20 4 20 2 0 6 -9 9 -20z"/>
<path d="M17412 22130 c0 -14 2 -19 5 -12 2 6 2 18 0 25 -3 6 -5 1 -5 -13z"/>
<path d="M17656 22076 c3 -9 11 -16 16 -16 13 0 5 23 -10 28 -7 2 -10 -2 -6
-12z"/>
<path d="M17454 22062 c-8 -5 -9 -20 -4 -47 l8 -40 1 45 c2 43 2 44 15 21 l13
-24 5 27 c5 27 -12 35 -38 18z"/>
<path d="M17688 22043 c7 -3 16 -2 19 1 4 3 -2 6 -13 5 -11 0 -14 -3 -6 -6z"/>
<path d="M17637 21823 c6 -4 13 -26 16 -48 4 -40 4 -40 3 4 -1 30 -6 46 -16
48 -10 3 -11 2 -3 -4z"/>
<path d="M17740 21700 c0 -22 5 -40 10 -40 6 0 10 9 10 20 0 24 25 26 38 3 9
-15 11 -15 27 1 16 16 16 18 0 36 -21 23 -41 26 -48 8 -4 -10 -6 -10 -6 0 -1
6 -8 12 -16 12 -11 0 -15 -11 -15 -40z m80 16 c0 -3 -4 -8 -10 -11 -5 -3 -10
-1 -10 4 0 6 5 11 10 11 6 0 10 -2 10 -4z"/>
<path d="M17757 21657 c-19 -19 -18 -19 35 -15 l54 3 -4 -28 c-4 -22 0 -29 17
-34 18 -4 21 -13 21 -54 0 -27 5 -49 10 -49 6 0 10 6 11 13 0 6 7 -4 15 -23
l14 -35 -3 33 c-2 17 0 32 5 32 4 0 8 -20 8 -45 0 -41 2 -45 28 -51 40 -9 83
-26 78 -32 -3 -2 -20 -8 -38 -12 l-33 -8 40 -2 c22 -1 55 -3 73 -5 22 -2 32 2
32 11 0 8 9 14 20 14 15 0 20 -7 20 -25 0 -22 -4 -25 -40 -25 -35 0 -40 -3
-39 -22 0 -13 3 -17 6 -10 5 12 33 17 33 6 0 -3 -10 -15 -22 -26 -13 -11 -17
-17 -10 -13 6 3 12 1 12 -6 0 -7 6 -4 14 7 13 16 17 17 28 5 9 -10 9 -12 1 -7
-13 7 -17 -3 -14 -36 1 -10 -3 -26 -8 -37 -8 -14 -8 -22 1 -27 6 -4 8 -3 5 3
-13 20 22 22 36 2 12 -16 19 -18 42 -9 15 6 25 13 22 16 -3 3 -14 1 -25 -5
-22 -11 -33 -6 -26 13 3 8 20 12 44 10 l40 -2 0 41 c0 23 -5 49 -11 57 -9 13
-10 12 -5 -2 4 -15 -1 -18 -30 -18 -35 0 -36 0 -33 43 3 47 -17 87 -43 87 -10
0 -18 -4 -18 -10 0 -19 -35 -9 -53 15 -15 22 -16 25 -2 25 8 0 15 -7 15 -15 0
-8 9 -15 20 -15 11 0 20 7 20 15 0 8 -9 15 -20 15 -12 0 -37 16 -57 37 -23 22
-39 31 -41 24 -9 -27 -42 21 -42 61 0 33 -3 38 -22 38 -20 0 -23 5 -22 40 2
40 2 40 -36 40 -21 0 -41 6 -43 13 -4 10 -6 10 -6 0 -1 -14 -47 -18 -53 -5 -1
4 -11 -1 -21 -11z m193 -131 c0 -2 -7 -6 -15 -10 -8 -3 -15 -1 -15 4 0 6 7 10
15 10 8 0 15 -2 15 -4z m20 -70 c0 -8 -4 -18 -10 -21 -5 -3 -10 3 -10 14 0 12
5 21 10 21 6 0 10 -6 10 -14z m44 -33 c6 -15 4 -15 -18 -7 -20 8 -21 21 -1 21
8 0 16 -6 19 -14z m133 -225 c-3 -8 -6 -5 -6 6 -1 11 2 17 5 13 3 -3 4 -12 1
-19z"/>
<path d="M17958 21673 c7 -3 16 -2 19 1 4 3 -2 6 -13 5 -11 0 -14 -3 -6 -6z"/>
<path d="M17805 21570 c3 -5 8 -10 11 -10 2 0 4 5 4 10 0 6 -5 10 -11 10 -5 0
-7 -4 -4 -10z"/>
<path d="M18000 21540 c0 -22 5 -40 10 -40 6 0 10 18 10 40 0 22 -4 40 -10 40
-5 0 -10 -18 -10 -40z"/>
<path d="M17800 21535 c-8 -9 -8 -15 -2 -15 12 0 26 19 19 26 -2 2 -10 -2 -17
-11z"/>
<path d="M17831 21514 c0 -11 3 -14 6 -6 3 7 2 16 -1 19 -3 4 -6 -2 -5 -13z"/>
<path d="M18140 21450 c0 -5 5 -10 10 -10 6 0 10 5 10 10 0 6 -4 10 -10 10 -5
0 -10 -4 -10 -10z"/>
<path d="M18140 21416 c0 -2 7 -7 16 -10 8 -3 12 -2 9 4 -6 10 -25 14 -25 6z"/>
<path d="M17928 21393 c7 -3 16 -2 19 1 4 3 -2 6 -13 5 -11 0 -14 -3 -6 -6z"/>
<path d="M17975 21380 c3 -5 10 -10 16 -10 5 0 9 5 9 10 0 6 -7 10 -16 10 -8
0 -12 -4 -9 -10z"/>
<path d="M18230 21334 c0 -8 5 -12 10 -9 6 4 8 11 5 16 -9 14 -15 11 -15 -7z"/>
<path d="M17991 21324 c0 -11 3 -14 6 -6 3 7 2 16 -1 19 -3 4 -6 -2 -5 -13z"/>
<path d="M18250 21310 c0 -5 5 -10 10 -10 6 0 10 5 10 10 0 6 -4 10 -10 10 -5
0 -10 -4 -10 -10z"/>
<path d="M18290 21290 c0 -5 5 -10 10 -10 6 0 10 5 10 10 0 6 -4 10 -10 10 -5
0 -10 -4 -10 -10z"/>
<path d="M18302 21243 c26 -28 25 -28 23 -1 -1 14 -9 22 -23 23 l-22 2 22 -24z"/>
<path d="M18055 21250 c3 -5 8 -10 11 -10 2 0 4 5 4 10 0 6 -5 10 -11 10 -5 0
-7 -4 -4 -10z"/>
<path d="M18101 21204 c0 -11 3 -14 6 -6 3 7 2 16 -1 19 -3 4 -6 -2 -5 -13z"/>
<path d="M18217 21116 c-3 -8 0 -16 7 -19 6 -3 13 4 13 14 2 22 -12 25 -20 5z"/>
<path d="M18250 21089 c0 -5 5 -7 10 -4 6 3 10 8 10 11 0 2 -4 4 -10 4 -5 0
-10 -5 -10 -11z"/>
<path d="M18290 21083 c0 -6 5 -15 12 -19 7 -5 9 -2 4 7 -4 8 0 5 9 -6 10 -13
18 -16 23 -9 10 15 41 14 35 -2 -2 -6 1 -15 8 -20 8 -5 10 -3 4 6 -5 8 -1 18
10 27 11 7 13 13 6 13 -7 0 -9 5 -6 10 3 6 -1 10 -10 10 -9 0 -14 -4 -11 -8 3
-5 -1 -9 -9 -9 -8 0 -12 4 -9 9 8 13 -10 10 -25 -4 -10 -9 -12 -9 -7 -1 4 8
-1 11 -14 10 -11 -1 -20 -7 -20 -14z"/>
<path d="M27910 16213 c-15 -6 -55 -43 -46 -43 3 0 -6 -12 -19 -26 -14 -15
-25 -33 -25 -40 0 -7 -9 -19 -19 -26 -11 -8 -25 -26 -32 -41 -7 -15 -16 -27
-21 -27 -5 0 -15 -15 -23 -32 -16 -40 -60 -100 -67 -93 -2 3 -5 -1 -5 -7 0
-16 -64 -108 -75 -108 -4 0 -8 -5 -8 -10 0 -6 -190 -278 -421 -605 -273 -385
-428 -595 -438 -595 -16 0 -204 259 -898 1235 -121 171 -239 334 -262 363
l-41 52 -1685 0 -1685 0 0 -35 c0 -19 5 -35 10 -35 6 0 10 8 10 18 0 9 5 24
11 32 8 11 9 7 6 -18 -4 -38 14 -39 23 -1 6 22 7 23 16 6 6 -11 9 -40 6 -66
-4 -42 -2 -48 19 -58 13 -7 18 -12 12 -12 -7 -1 -13 -5 -13 -11 0 -5 15 -7 33
-5 24 4 27 3 12 -3 -19 -9 -19 -9 4 -17 l25 -8 -25 -11 c-13 -6 -25 -17 -26
-23 -4 -18 7 -16 24 5 8 9 12 11 8 5 -3 -7 -2 -13 4 -13 5 0 14 12 20 28 11
26 11 26 6 -8 -6 -46 7 -69 29 -51 13 11 16 11 16 -2 0 -9 -4 -19 -10 -22 -5
-3 -10 -16 -9 -28 l0 -22 9 21 c9 22 32 43 29 27 -4 -22 2 -43 11 -38 5 3 20
-5 32 -18 13 -13 30 -27 38 -30 12 -4 11 -6 -2 -6 -21 -1 -25 -31 -5 -31 16 0
53 -38 45 -46 -3 -3 -12 2 -20 10 -10 9 -20 11 -29 5 -12 -7 -11 -9 2 -9 10 0
20 -11 23 -25 6 -24 36 -36 36 -15 0 21 30 9 36 -15 3 -14 11 -25 16 -25 11 0
6 -73 -7 -105 -7 -16 -4 -15 13 5 20 23 21 24 22 5 1 -18 1 -19 11 -2 19 32
39 20 41 -25 l1 -43 7 45 7 45 1 -42 c2 -37 5 -42 30 -46 15 -2 -5 -5 -44 -6
-39 0 -86 2 -103 5 -28 6 -31 10 -31 45 l0 39 -60 0 -60 0 0 36 c0 27 -5 37
-20 41 -16 4 -20 14 -20 44 0 32 -3 39 -20 39 -15 0 -20 7 -20 29 0 27 -3 30
-37 33 -36 3 -38 5 -41 41 -3 34 -6 37 -33 37 -16 0 -29 -4 -29 -10 0 -5 -7
-10 -16 -10 -11 0 -14 6 -9 20 5 16 3 19 -12 14 -11 -4 -14 -3 -7 3 6 4 14 15
17 23 4 12 6 11 6 -2 1 -11 9 -18 21 -18 17 0 20 7 20 40 0 33 -3 40 -20 40
-17 0 -20 7 -20 38 0 37 -1 39 -35 40 -19 1 -36 -2 -39 -6 -2 -4 4 -33 14 -63
27 -79 33 -119 19 -135 -8 -10 -8 -14 0 -14 6 0 11 5 11 10 0 6 5 10 10 10 14
0 12 -28 -2 -32 -8 -3 -6 -7 5 -11 10 -4 16 -2 14 5 -1 6 4 13 11 15 6 3 12 0
12 -6 0 -6 7 -11 15 -11 8 0 15 8 15 18 0 12 3 14 8 4 5 -7 5 -35 2 -62 -5
-36 -3 -54 7 -61 10 -9 13 -7 13 10 0 11 3 21 8 21 21 -1 31 -20 34 -64 2 -28
8 -51 16 -54 6 -2 12 4 12 13 0 13 6 16 23 11 12 -3 25 -6 30 -6 4 0 7 -4 7
-10 0 -14 -28 -12 -33 3 -2 7 -8 8 -13 3 -5 -5 -4 -11 4 -13 6 -3 12 -11 12
-19 0 -8 -6 -14 -12 -14 -26 0 17 -20 45 -20 18 0 27 -5 27 -17 0 -9 3 -13 7
-10 3 4 12 2 20 -4 15 -13 18 -49 3 -49 -5 0 -10 6 -10 13 0 8 -4 7 -10 -3
-13 -20 45 -28 218 -29 98 -1 132 -4 132 -13 1 -7 1 -94 2 -193 1 -156 2 -166
7 -75 3 58 9 94 12 80 6 -23 6 -22 8 7 1 26 4 31 18 26 11 -4 12 -8 5 -11 -15
-5 -16 -42 -1 -42 7 0 9 -9 6 -22 l-6 -23 17 21 c29 35 48 26 50 -23 1 -38 -1
-43 -21 -44 -21 0 -21 -1 -2 -9 29 -12 35 -12 35 3 0 10 10 12 32 9 32 -5 32
-5 8 -15 l-25 -10 25 -5 c32 -5 65 -33 49 -42 -16 -10 56 -80 84 -81 17 -1 18
-2 5 -6 -10 -2 -18 -11 -18 -20 0 -10 6 -14 19 -10 14 3 20 -2 24 -20 3 -18 0
-23 -12 -22 -29 3 -41 -1 -41 -11 0 -6 10 -8 23 -5 27 7 52 -17 43 -41 -3 -8
1 -22 9 -30 8 -9 15 -12 15 -8 0 3 7 1 15 -6 12 -10 16 -9 21 4 8 22 21 20 27
-3 3 -12 16 -21 33 -23 l29 -4 -25 -11 -25 -12 30 -2 c28 -2 28 -2 5 -6 -25
-5 -40 -19 -40 -38 0 -5 5 -3 10 5 9 13 13 11 30 -10 17 -21 21 -23 31 -10 8
12 9 11 5 -5 -4 -15 2 -25 24 -40 30 -20 39 -35 20 -35 -18 0 -11 -20 8 -21
14 0 14 -2 -3 -9 -17 -7 -17 -9 -2 -9 9 -1 17 -6 17 -12 0 -7 -8 -18 -17 -25
-17 -13 -17 -13 0 -14 10 0 17 -8 17 -19 0 -11 5 -23 10 -26 6 -3 10 5 10 19
0 13 -6 27 -12 30 -10 5 -10 7 0 12 6 3 12 12 12 20 0 8 -6 14 -12 14 -10 0
-9 3 1 9 11 7 11 9 0 13 -8 3 -11 9 -7 13 11 12 28 -5 28 -29 0 -13 6 -36 14
-51 12 -23 15 -24 19 -8 3 10 5 3 6 -17 2 -31 3 -33 11 -12 14 33 20 27 9 -10
-12 -43 -11 -59 2 -55 8 1 13 -26 16 -78 5 -99 13 -111 13 -19 0 67 0 68 17
44 12 -17 13 -25 5 -28 -7 -2 -12 -20 -13 -40 0 -20 -4 -46 -8 -56 -7 -18 -8
-18 -14 5 -4 13 -7 34 -7 47 0 19 -5 22 -40 22 -25 0 -41 5 -42 13 0 6 -2 17
-2 22 -1 6 -14 23 -29 39 -20 21 -27 39 -27 67 0 44 -17 53 -22 12 l-3 -27
-29 27 c-16 15 -24 27 -17 27 6 0 11 17 11 40 0 33 -3 40 -20 40 -11 0 -20 5
-20 11 0 12 -51 65 -60 62 -3 -1 -3 19 -1 43 2 27 -1 44 -8 44 -6 0 -11 -12
-11 -26 0 -15 -4 -23 -11 -19 -6 4 -17 -1 -25 -11 -14 -18 -15 -17 -10 13 3
18 1 35 -5 39 -6 3 -9 25 -8 48 3 48 -8 77 -22 55 -6 -10 -17 -4 -44 24 -30
30 -43 37 -75 37 -37 0 -40 2 -40 28 0 32 -16 52 -41 52 -24 0 -29 -21 -11
-42 13 -16 13 -19 -9 -27 -13 -5 -18 -10 -10 -10 7 -1 25 -13 40 -28 22 -24
26 -26 29 -10 5 25 22 10 23 -21 1 -23 3 -22 8 8 l7 35 12 -40 c7 -22 12 -55
12 -72 0 -49 20 -40 21 10 2 41 2 41 8 -11 5 -42 13 -58 36 -77 25 -21 28 -26
15 -35 -13 -8 -13 -11 -1 -19 10 -6 12 -21 9 -47 -5 -36 -5 -37 5 -11 6 15 16
27 21 27 6 0 4 4 -4 10 -24 15 -5 21 23 7 24 -13 25 -15 9 -30 -15 -16 -15
-17 5 -17 25 0 39 -16 21 -23 -7 -3 1 -4 17 -4 25 2 29 -1 27 -18 -2 -11 -9
-24 -15 -28 -7 -5 -1 -7 16 -4 26 4 27 3 27 -39 0 -24 5 -44 10 -44 6 0 10 8
10 17 0 13 3 14 12 5 7 -7 19 -12 28 -12 12 1 11 4 -4 15 -21 16 -10 21 13 6
7 -5 10 -14 7 -20 -4 -6 0 -11 8 -11 10 0 16 -9 16 -26 0 -14 7 -32 16 -41 11
-11 14 -28 10 -57 -3 -22 -3 -33 0 -23 7 23 24 22 24 -2 0 -10 8 -25 17 -32
14 -12 16 -12 11 1 -4 11 3 15 26 16 17 1 23 -1 14 -3 -10 -2 -18 -9 -18 -15
0 -6 8 -17 18 -24 15 -12 15 -13 0 -14 -9 0 -18 6 -21 13 -2 7 -8 8 -13 3 -5
-5 -4 -11 4 -13 6 -3 12 -13 12 -24 0 -10 5 -19 10 -19 6 0 10 -7 10 -15 0
-18 26 -20 34 -2 3 6 5 1 5 -13 -3 -78 2 -108 18 -114 26 -11 31 3 37 104 3
60 2 88 -4 75 -6 -14 -9 1 -9 53 -1 46 3 71 9 67 7 -4 10 185 10 559 l0 566
588 0 c558 0 590 1 605 18 15 16 17 50 17 266 0 213 2 247 15 244 12 -2 1426
-1944 1566 -2150 l39 -57 0 -1079 0 -1079 23 -21 c23 -22 27 -22 388 -22 l366
0 21 23 22 23 0 1077 0 1076 393 545 c215 299 396 541 401 538 5 -3 6 -1 3 5
-6 10 62 110 84 124 6 3 9 8 8 10 -6 7 62 99 72 99 6 0 8 4 4 9 -3 6 11 27 32
48 21 20 31 34 23 29 -8 -4 -5 1 7 12 12 11 19 22 16 26 -4 3 -1 6 5 6 7 0 12
6 12 13 0 8 19 33 43 57 23 24 35 40 27 36 -8 -4 -4 2 9 13 13 12 20 21 16 21
-5 0 1 8 11 18 32 27 64 79 56 87 -4 5 -2 5 4 2 6 -3 19 8 29 26 11 18 29 43
42 57 13 14 23 30 23 37 0 7 4 13 9 13 11 0 44 50 44 67 0 7 3 13 7 13 14 0
79 93 73 103 -3 5 -2 7 3 4 6 -3 25 18 44 46 19 29 38 54 41 57 3 3 35 46 71
96 54 75 66 98 66 130 0 78 23 74 -467 73 -240 0 -443 -3 -451 -6z m-5649
-113 c5 0 9 -9 9 -20 0 -11 -7 -20 -15 -20 -11 0 -15 11 -14 48 1 29 4 36 6
20 2 -16 9 -28 14 -28z m49 -30 c0 -5 -4 -10 -10 -10 -5 0 -10 5 -10 10 0 6 5
10 10 10 6 0 10 -4 10 -10z m50 -80 c0 -5 -4 -10 -10 -10 -5 0 -10 5 -10 10 0
6 5 10 10 10 6 0 10 -4 10 -10z m-210 -19 c0 -6 -4 -13 -10 -16 -5 -3 -10 1
-10 9 0 9 5 16 10 16 6 0 10 -4 10 -9z m200 -21 c0 -5 -4 -10 -10 -10 -5 0
-10 5 -10 10 0 6 5 10 10 10 6 0 10 -4 10 -10z m-90 -170 c0 -5 -4 -10 -10
-10 -5 0 -10 5 -10 10 0 6 5 10 10 10 6 0 10 -4 10 -10z m40 -20 c0 -5 -4 -10
-10 -10 -5 0 -10 5 -10 10 0 6 5 10 10 10 6 0 10 -4 10 -10z m40 -80 c0 -5 -4
-10 -10 -10 -5 0 -10 5 -10 10 0 6 5 10 10 10 6 0 10 -4 10 -10z m130 -170 c0
-5 -5 -10 -11 -10 -5 0 -7 5 -4 10 3 6 8 10 11 10 2 0 4 -4 4 -10z m337 -162
c-3 -7 -5 -2 -5 12 0 14 2 19 5 13 2 -7 2 -19 0 -25z m47 -10 c6 -5 2 -8 -11
-8 -17 0 -20 4 -15 22 4 16 7 18 10 8 3 -8 10 -18 16 -22z m-77 -20 c-3 -8 -6
-5 -6 6 -1 11 2 17 5 13 3 -3 4 -12 1 -19z m81 -45 c-10 -2 -26 -2 -35 0 -10
3 -2 5 17 5 19 0 27 -2 18 -5z m259 -315 c-3 -8 -6 -5 -6 6 -1 11 2 17 5 13 3
-3 4 -12 1 -19z m28 -8 c3 -5 1 -10 -4 -10 -6 0 -11 5 -11 10 0 6 2 10 4 10 3
0 8 -4 11 -10z m10 -50 c3 -5 -3 -10 -14 -10 -12 0 -21 5 -21 10 0 6 6 10 14
10 8 0 18 -4 21 -10z m25 -30 c-36 -12 -60 -12 -60 0 0 6 19 10 43 9 36 -1 38
-2 17 -9z m-139 -54 c3 -32 1 -42 -8 -39 -15 6 -18 83 -4 83 5 0 11 -20 12
-44z m-44 -23 c-3 -10 -5 -2 -5 17 0 19 2 27 5 18 2 -10 2 -26 0 -35z m63 -83
c0 -5 8 -10 18 -10 21 0 49 -17 40 -25 -7 -7 -78 26 -78 37 0 4 5 8 10 8 6 0
10 -4 10 -10z m73 -80 c3 -11 1 -20 -4 -20 -5 0 -9 9 -9 20 0 11 2 20 4 20 2
0 6 -9 9 -20z m346 -532 c1 -21 -3 -38 -8 -38 -11 0 -18 81 -12 130 l5 35 7
-45 c4 -25 8 -62 8 -82z"/>
<path d="M21880 16200 c0 -5 9 -14 20 -20 11 -6 20 -8 20 -4 0 4 9 -1 20 -11
19 -17 21 -17 40 0 17 16 20 16 20 2 0 -8 -4 -17 -9 -19 -14 -5 -17 -96 -3
-110 9 -9 12 -2 12 32 0 49 8 50 14 2 3 -26 55 -92 72 -92 13 0 0 33 -23 61
-18 21 -24 34 -15 37 6 2 12 17 12 33 0 16 4 29 10 29 5 0 -6 16 -26 35 -32
33 -39 35 -99 35 -36 0 -65 -4 -65 -10z"/>
<path d="M21890 16135 c0 -5 5 -17 10 -25 5 -8 10 -10 10 -5 0 6 -5 17 -10 25
-5 8 -10 11 -10 5z"/>
<path d="M22320 15835 c0 -8 7 -15 16 -15 14 0 14 3 4 15 -7 8 -14 15 -16 15
-2 0 -4 -7 -4 -15z"/>
<path d="M22391 15834 c0 -11 3 -14 6 -6 3 7 2 16 -1 19 -3 4 -6 -2 -5 -13z"/>
<path d="M22120 15800 c0 -5 5 -10 10 -10 6 0 10 5 10 10 0 6 -4 10 -10 10 -5
0 -10 -4 -10 -10z"/>
<path d="M22530 15661 c0 -5 7 -14 15 -21 12 -10 15 -10 15 3 0 8 -7 17 -15
21 -8 3 -15 2 -15 -3z"/>
<path d="M22291 15564 c0 -11 3 -14 6 -6 3 7 2 16 -1 19 -3 4 -6 -2 -5 -13z"/>
<path d="M22781 15103 c0 -50 3 -83 9 -83 11 0 12 43 0 115 -7 47 -7 45 -9
-32z"/>
<path d="M22880 15117 c0 -19 16 -31 24 -18 3 5 -1 14 -9 21 -12 10 -15 10
-15 -3z"/>
<path d="M22941 15064 c0 -11 3 -14 6 -6 3 7 2 16 -1 19 -3 4 -6 -2 -5 -13z"/>
<path d="M22880 15045 c0 -20 5 -25 25 -25 22 0 24 3 16 19 -17 31 -41 34 -41
6z"/>
<path d="M23170 14790 c0 -5 5 -10 11 -10 5 0 7 5 4 10 -3 6 -8 10 -11 10 -2
0 -4 -4 -4 -10z"/>
<path d="M23110 14570 c-13 -8 -13 -10 2 -10 9 0 20 5 23 10 8 13 -5 13 -25 0z"/>
<path d="M23100 14540 c-9 -6 -10 -10 -3 -10 6 0 15 5 18 10 8 12 4 12 -15 0z"/>
<path d="M23220 14446 c0 -8 4 -17 10 -21 5 -3 6 -13 3 -22 -5 -12 -2 -15 10
-10 9 3 17 2 17 -2 0 -5 -6 -12 -12 -14 -8 -3 -6 -6 5 -6 11 -1 17 6 17 19 0
11 -5 20 -11 20 -8 0 -8 4 0 13 8 10 7 17 -1 25 -16 16 -38 15 -38 -2z"/>
<path d="M23280 14364 c0 -10 -6 -14 -15 -10 -8 3 -15 1 -15 -4 0 -6 11 -10
25 -10 18 0 25 5 25 20 0 11 -4 20 -10 20 -5 0 -10 -7 -10 -16z"/>
<path d="M23265 14321 c-3 -5 -1 -12 5 -16 5 -3 10 1 10 9 0 18 -6 21 -15 7z"/>
<path d="M23481 14024 c0 -11 3 -14 6 -6 3 7 2 16 -1 19 -3 4 -6 -2 -5 -13z"/>
<path d="M2382 8438 c-9 -77 -12 -874 -12 -3209 0 -2996 1 -3106 18 -3122 17
-16 198 -17 2418 -15 1319 0 2379 4 2354 7 -43 6 -40 7 38 15 45 4 82 12 82
17 0 5 -9 9 -20 9 -17 0 -20 7 -20 40 0 22 -5 40 -11 40 -7 0 -10 -17 -7 -45
2 -26 -1 -45 -7 -45 -5 0 -10 21 -10 47 0 44 -2 48 -22 45 -19 -3 -23 2 -23
22 0 14 5 26 10 26 6 0 10 7 10 15 0 8 -4 15 -10 15 -5 0 -10 -7 -10 -15 0 -8
-4 -15 -10 -15 -5 0 -10 6 -10 14 0 8 -4 16 -10 18 -5 2 -13 23 -16 48 -7 48
-14 63 -21 42 -4 -10 -8 -10 -19 -1 -12 10 -17 9 -27 -1 -8 -9 -8 -11 0 -6 7
4 9 -1 5 -16 -3 -12 -7 -17 -9 -11 -3 7 -11 9 -19 6 -8 -3 -14 0 -14 6 0 6 5
11 10 11 6 0 10 5 10 10 0 6 -6 10 -14 10 -8 0 -17 7 -20 16 -3 8 -9 13 -14
10 -4 -2 -9 4 -9 15 -1 10 5 19 13 19 10 0 14 12 14 40 0 33 -3 40 -20 40 -12
0 -20 -7 -20 -17 0 -15 -1 -15 -18 0 -10 10 -24 17 -30 17 -7 0 -12 7 -12 15
0 8 5 15 10 15 6 0 10 12 10 26 0 21 -4 25 -20 21 -16 -4 -20 0 -22 21 -2 46
-3 50 -11 58 -4 4 -7 1 -7 -7 0 -17 -39 -21 -41 -4 -1 5 -2 29 -3 52 0 22 -4
39 -8 37 -4 -3 -6 -22 -4 -44 2 -29 0 -37 -10 -33 -8 3 -14 12 -14 19 0 8 -7
26 -16 39 -14 21 -24 25 -70 25 -30 0 -54 5 -54 10 0 6 27 10 61 10 37 0 58 4
54 10 -4 7 -625 10 -1831 10 l-1824 0 -2 2423 c-1 1332 -5 2379 -8 2327 l-6
-95 -3 85 c-1 47 -6 108 -11 135 -7 48 -7 46 -10 -35 -2 -57 -5 -70 -7 -40 -3
24 -10 48 -16 52 -8 6 -9 10 -1 16 11 8 14 53 3 46 -4 -2 -14 3 -23 11 -9 10
-17 11 -21 5 -4 -6 -11 -7 -17 -4 -7 5 -2 11 13 16 19 7 21 11 9 19 -12 7 -11
10 7 15 13 4 20 10 17 16 -3 5 -11 5 -19 -2 -16 -13 -25 7 -25 56 0 19 -4 34
-10 34 -5 0 -10 -11 -10 -25 0 -22 -3 -24 -19 -15 -11 5 -25 23 -33 40 -15 34
-28 39 -28 11 0 -10 -7 -25 -17 -32 -15 -13 -15 -12 -5 8 18 32 15 93 -3 93
-10 0 -15 10 -15 30 0 23 -4 30 -20 30 -11 0 -20 6 -20 13 0 8 -4 7 -10 -3 -5
-8 -10 -10 -10 -5 0 6 -9 11 -20 11 -11 0 -20 -5 -20 -10 0 -5 -3 -6 -7 -2 -5
4 -10 35 -13 69 l-5 62 -37 3 c-30 3 -38 7 -38 23 0 10 -4 19 -10 19 -5 0 -10
18 -10 40 0 40 0 40 -39 40 -38 0 -39 1 -43 41 -2 27 1 43 9 46 21 8 16 43 -7
43 -11 0 -20 -4 -20 -10 0 -19 -35 -10 -50 13 -15 23 -17 28 -19 53 0 10 -7
14 -15 11 -10 -4 -16 2 -18 15 -2 12 -8 23 -14 25 -6 2 -15 -36 -22 -99z m414
-482 c0 -14 -5 -21 -9 -17 -4 4 -5 15 -1 24 9 24 12 21 10 -7z m165 -149 c-1
-4 -1 -20 -1 -37 0 -16 -4 -30 -10 -30 -5 0 -10 18 -10 41 0 25 4 39 11 37 6
-2 10 -7 10 -11z m74 -97 c3 -5 2 -10 -4 -10 -5 0 -13 5 -16 10 -3 6 -2 10 4
10 5 0 13 -4 16 -10z m-25 -20 c0 -5 -2 -10 -4 -10 -3 0 -8 5 -11 10 -3 6 -1
10 4 10 6 0 11 -4 11 -10z m4090 -5375 c0 -6 -9 -11 -20 -11 -11 0 -20 5 -20
11 0 6 9 11 20 11 11 0 20 -5 20 -11z"/>
<path d="M2486 8518 c-6 -31 -3 -68 5 -68 3 0 5 20 5 45 -1 50 -4 56 -10 23z"/>
<path d="M2880 7950 c0 -5 5 -10 11 -10 5 0 7 5 4 10 -3 6 -8 10 -11 10 -2 0
-4 -4 -4 -10z"/>
<path d="M3840 6680 c0 -5 5 -10 10 -10 6 0 10 5 10 10 0 6 -4 10 -10 10 -5 0
-10 -4 -10 -10z"/>
<path d="M3840 6650 c0 -5 5 -10 10 -10 6 0 10 5 10 10 0 6 -4 10 -10 10 -5 0
-10 -4 -10 -10z"/>
<path d="M3833 6543 l-11 -88 3 85 c3 70 2 76 -5 35 -4 -27 -8 -680 -9 -1449
l-1 -1399 21 -24 22 -23 327 0 327 0 21 23 22 23 0 1007 0 1007 -34 0 c-30 0
-35 3 -38 28 -3 23 -8 27 -40 30 -38 3 -50 15 -24 25 8 3 23 3 34 0 11 -2 23
0 26 6 7 10 -26 16 -61 12 -20 -3 -15 17 6 29 11 5 30 10 43 10 18 0 20 2 8
10 -8 5 -27 10 -42 10 -16 0 -28 4 -28 10 0 5 -7 7 -15 4 -11 -4 -15 0 -15 16
0 16 4 20 15 16 9 -3 15 0 15 9 0 9 -6 12 -15 9 -8 -4 -15 -1 -15 5 0 6 -7 11
-15 11 -9 0 -15 9 -15 23 0 13 -5 28 -12 35 -7 7 -9 12 -4 12 4 0 1 7 -8 15
-18 18 -43 19 -49 3 -4 -10 -6 -10 -6 0 -1 19 -21 14 -21 -5 0 -33 -19 2 -22
40 -1 20 -6 37 -10 37 -4 0 -8 11 -8 25 0 14 -5 25 -11 25 -8 0 -7 5 2 16 11
14 10 16 -6 14 -58 -6 -65 -2 -65 40 0 22 -4 40 -10 40 -5 0 -10 18 -10 40 0
22 -4 40 -10 40 -5 0 -10 -18 -10 -40 0 -33 -4 -40 -19 -40 -15 0 -20 9 -23
40 -3 33 0 40 17 42 13 2 21 11 22 28 1 14 0 18 -3 8 -3 -10 -11 -18 -18 -18
-22 0 -56 45 -56 74 0 16 -5 26 -12 25 -44 -5 -68 2 -68 21 0 11 -4 20 -10 20
-5 0 -10 18 -10 40 0 28 -4 40 -14 40 -8 0 -21 2 -29 5 -11 5 -16 -13 -24 -82z
m168 -138 c5 3 6 -1 2 -10 -5 -13 -7 -14 -14 -3 -5 7 -8 20 -8 28 1 11 3 10 6
-3 2 -9 9 -15 14 -12z m299 -429 c0 -3 -4 -8 -10 -11 -5 -3 -10 -1 -10 4 0 6
5 11 10 11 6 0 10 -2 10 -4z m115 -96 c-3 -5 -12 -7 -20 -3 -21 7 -19 13 6 13
11 0 18 -4 14 -10z"/>
<path d="M4040 6430 c0 -5 5 -10 10 -10 6 0 10 5 10 10 0 6 -4 10 -10 10 -5 0
-10 -4 -10 -10z"/>
<path d="M4445 5860 c-4 -6 3 -10 14 -10 25 0 27 6 6 13 -8 4 -17 2 -20 -3z"/>
<path d="M5510 4380 c-2 -71 -4 -78 -9 -40 -3 25 -7 -103 -9 -284 -3 -328 -3
-329 19 -352 22 -24 25 -24 218 -24 132 0 191 4 181 10 -11 7 -6 8 17 4 38 -7
103 3 103 16 0 5 -26 10 -57 12 -49 3 -58 6 -60 23 -2 11 0 14 3 8 4 -8 27
-13 66 -13 50 0 59 3 56 17 -2 9 -19 22 -38 29 -19 7 -27 13 -17 13 14 1 17 8
13 39 -3 20 -5 42 -5 49 -1 6 -10 9 -21 6 -19 -5 -19 -6 -3 -18 10 -8 15 -17
11 -21 -4 -4 -14 -1 -23 6 -12 10 -15 10 -15 -4 0 -10 -4 -15 -9 -12 -4 3 -6
17 -3 31 2 14 0 25 -7 25 -7 0 -9 14 -6 40 4 31 2 40 -10 40 -8 0 -15 -7 -15
-15 0 -8 -4 -15 -10 -15 -5 0 -10 7 -10 15 0 10 -10 15 -30 15 -23 0 -30 4
-30 20 0 11 -7 20 -15 20 -8 0 -15 1 -16 3 0 1 -2 22 -5 47 -3 32 -2 41 6 30
9 -13 10 -13 10 0 0 8 -4 21 -9 28 -7 11 -10 10 -15 -3 -3 -9 -6 -28 -6 -41 0
-48 -18 -22 -24 35 -5 46 -11 61 -26 66 -10 3 -21 14 -23 23 -3 9 -5 -2 -6
-25 -1 -57 -18 -63 -23 -8 -2 25 -1 45 2 45 3 0 5 17 5 37 l0 37 -49 3 c-28 2
-52 5 -54 8 -2 2 -4 20 -4 39 0 28 -4 36 -18 36 -15 0 -20 9 -23 43 -2 26 -5
10 -7 -43z m130 -130 c0 -5 -4 -10 -10 -10 -5 0 -10 5 -10 10 0 6 5 10 10 10
6 0 10 -4 10 -10z m128 -265 c-3 -3 -9 2 -12 12 -6 14 -5 15 5 6 7 -7 10 -15
7 -18z m212 -155 c0 -5 -4 -10 -10 -10 -5 0 -10 5 -10 10 0 6 5 10 10 10 6 0
10 -4 10 -10z m17 -66 c-3 -3 -12 -4 -19 -1 -8 3 -5 6 6 6 11 1 17 -2 13 -5z"/>
<path d="M5800 4128 c0 -7 5 -20 10 -28 8 -12 10 -12 11 5 l0 20 9 -20 c6 -13
9 -15 9 -5 0 8 -3 20 -7 25 -11 15 -32 17 -32 3z"/>
<path d="M5790 4070 c0 -5 5 -10 10 -10 6 0 10 5 10 10 0 6 -4 10 -10 10 -5 0
-10 -4 -10 -10z"/>
<path d="M5820 4073 c0 -4 5 -15 10 -23 8 -13 10 -13 10 2 0 9 -4 20 -10 23
-5 3 -10 3 -10 -2z"/>
</g>
</svg>
